<svg id="light" xmlns="http://www.w3.org/2000/svg" viewBox="0 0 512 512"><defs><style>.cls-1{fill:#050c6b;}</style></defs><path class="cls-1" d="M458.67,512H53.33A53.39,53.39,0,0,1,0,458.67V53.33A53.39,53.39,0,0,1,53.33,0H458.67A53.39,53.39,0,0,1,512,53.33V458.67A53.39,53.39,0,0,1,458.67,512ZM53.33,21.33a32,32,0,0,0-32,32V458.67a32,32,0,0,0,32,32H458.67a32,32,0,0,0,32-32V53.33a32,32,0,0,0-32-32Z" transform="translate(0 0)"/><path class="cls-1" d="M352,170.67H160a10.67,10.67,0,0,1,0-21.34H352a10.67,10.67,0,1,1,0,21.34Z" transform="translate(0 0)"/><path class="cls-1" d="M352,266.67H160a10.67,10.67,0,1,1,0-21.34H352a10.67,10.67,0,1,1,0,21.34Z" transform="translate(0 0)"/><path class="cls-1" d="M352,362.67H160a10.67,10.67,0,1,1,0-21.34H352a10.67,10.67,0,0,1,0,21.34Z" transform="translate(0 0)"/></svg>